<svg width="23" height="23" viewBox="0 0 23 23" fill="none" xmlns="http://www.w3.org/2000/svg">
<path fill-rule="evenodd" clip-rule="evenodd" d="M11.5 0.0416641C5.17188 0.0416641 0.0416718 5.17187 0.0416718 11.5C0.0416718 17.8281 5.17188 22.9583 11.5 22.9583C17.8281 22.9583 22.9583 17.8281 22.9583 11.5C22.9583 5.17187 17.8281 0.0416641 11.5 0.0416641ZM16.4667 9.5625C16.5581 9.45796 16.6278 9.33619 16.6714 9.20434C16.7151 9.0725 16.732 8.93324 16.7211 8.79477C16.7102 8.65631 16.6717 8.52142 16.6079 8.39805C16.5441 8.27468 16.4562 8.16532 16.3495 8.0764C16.2428 7.98748 16.1194 7.92079 15.9866 7.88027C15.8537 7.83975 15.7141 7.82621 15.5759 7.84044C15.4378 7.85468 15.3038 7.8964 15.182 7.96316C15.0602 8.02991 14.953 8.12036 14.8667 8.22916L10.3875 13.6031L8.0698 11.2844C7.87334 11.0946 7.61021 10.9896 7.33709 10.992C7.06397 10.9944 6.8027 11.1039 6.60957 11.2971C6.41644 11.4902 6.30688 11.7515 6.30451 12.0246C6.30214 12.2977 6.40713 12.5608 6.59688 12.7573L9.72188 15.8823C9.82423 15.9846 9.94677 16.0644 10.0817 16.1167C10.2166 16.169 10.3609 16.1927 10.5055 16.1861C10.65 16.1795 10.7916 16.1429 10.9213 16.0786C11.0509 16.0143 11.1657 15.9236 11.2583 15.8125L16.4667 9.5625Z" fill="#22A094"/>
</svg>
